<svg width="30" height="32" viewBox="0 0 30 32" fill="none" xmlns="http://www.w3.org/2000/svg">
<path d="M9.83848 8.97217H4.88835C4.37577 8.97217 3.96021 9.38773 3.96021 9.90032C3.96021 10.4129 4.37577 10.8285 4.88835 10.8285H9.83848C10.3511 10.8285 10.7666 10.4129 10.7666 9.90032C10.7666 9.38773 10.3511 8.97217 9.83848 8.97217Z" fill="black"/>
<path d="M9.83848 13.9224H4.88835C4.37577 13.9224 3.96021 14.3379 3.96021 14.8505C3.96021 15.3631 4.37577 15.7787 4.88835 15.7787H9.83848C10.3511 15.7787 10.7666 15.3631 10.7666 14.8505C10.7666 14.3379 10.3511 13.9224 9.83848 13.9224Z" fill="black"/>
<path d="M9.83848 18.8726H4.88835C4.37577 18.8726 3.96021 19.2881 3.96021 19.8007C3.96021 20.3133 4.37577 20.7289 4.88835 20.7289H9.83848C10.3511 20.7289 10.7666 20.3133 10.7666 19.8007C10.7666 19.2881 10.3511 18.8726 9.83848 18.8726Z" fill="black"/>
<path d="M23.1418 17.0116V8.53773C23.1418 7.31443 22.6702 6.16037 21.8137 5.28754L18.0477 1.39309C18.0459 1.39123 18.0441 1.38931 18.0423 1.38746C17.1752 0.505717 15.9687 0 14.7322 0H2.78445C1.2491 0 0 1.2491 0 2.78445V26.8544C0 28.3898 1.2491 29.6389 2.78445 29.6389H17.1295C18.4522 30.9032 20.2438 31.6808 22.2137 31.6808C26.3079 31.6808 29.6389 28.3777 29.6389 24.3175C29.6389 20.569 26.7997 17.466 23.1418 17.0116ZM1.8563 26.8544V2.78445C1.8563 2.27267 2.27267 1.8563 2.78445 1.8563H14.7322C15.4731 1.8563 16.1961 2.15894 16.7163 2.68656L20.4816 6.58039C20.4834 6.58225 20.4852 6.5841 20.4869 6.5859C21.0019 7.1098 21.2855 7.80295 21.2855 8.53779V17.0125C17.6619 17.4703 14.8504 20.5717 14.8504 24.3176C14.8504 25.5695 15.1648 26.7493 15.7183 27.7826H2.78445C2.27267 27.7826 1.8563 27.3662 1.8563 26.8544ZM22.2137 29.8245C19.1771 29.8245 16.7067 27.3541 16.7067 24.3175C16.7067 21.2809 19.1771 18.8105 22.2137 18.8105C25.2844 18.8105 27.7826 21.2809 27.7826 24.3175C27.7826 27.3541 25.2844 29.8245 22.2137 29.8245Z" fill="black"/>
<path d="M14.7885 10.8285H15.7785C16.2911 10.8285 16.7067 10.4129 16.7067 9.90032C16.7067 9.38773 16.2911 8.97217 15.7785 8.97217H14.7885C14.2759 8.97217 13.8604 9.38773 13.8604 9.90032C13.8604 10.4129 14.2759 10.8285 14.7885 10.8285Z" fill="black"/>
<path d="M16.7067 14.8505C16.7067 14.3379 16.2911 13.9224 15.7785 13.9224H14.7885C14.2759 13.9224 13.8604 14.3379 13.8604 14.8505C13.8604 15.3631 14.2759 15.7787 14.7885 15.7787H15.7785C16.2911 15.7787 16.7067 15.3631 16.7067 14.8505Z" fill="black"/>
<path d="M24.5833 23.5833H23.4167V22.4167C23.4167 21.9109 23.0069 21.5 22.5 21.5C21.9931 21.5 21.5833 21.9109 21.5833 22.4167V23.5833H20.4167C19.9098 23.5833 19.5 23.9942 19.5 24.5C19.5 25.0058 19.9098 25.4167 20.4167 25.4167H21.5833V26.5833C21.5833 27.0891 21.9931 27.5 22.5 27.5C23.0069 27.5 23.4167 27.0891 23.4167 26.5833V25.4167H24.5833C25.0902 25.4167 25.5 25.0058 25.5 24.5C25.5 23.9942 25.0902 23.5833 24.5833 23.5833Z" stroke="black"/>
</svg>
