<svg width="22" height="25" viewBox="0 0 22 25" fill="none" xmlns="http://www.w3.org/2000/svg">
<path fill-rule="evenodd" clip-rule="evenodd" d="M20.6557 7.49996C21.4315 8.10091 21.9074 8.99365 21.9884 9.96512L22 10.1979V19.5872C22 22.0072 20.0883 23.9756 17.6926 24.103H15.3884C14.2873 24.081 13.3968 23.2242 13.3158 22.1473L13.3042 21.9841V18.6736C13.3042 18.3135 13.0367 18.0136 12.6789 17.9546L12.5747 17.943H9.482C9.11263 17.9546 8.81158 18.2209 8.76526 18.5683L8.75368 18.6736V21.9736C8.75368 22.042 8.74095 22.123 8.73053 22.1809L8.71895 22.2052L8.70621 22.2851C8.56842 23.2705 7.75789 24.022 6.75053 24.0926L6.6 24.103H4.52737C2.10737 24.103 0.127368 22.2052 0 19.8188V10.1979C0.0104211 9.21249 0.44 8.29775 1.15789 7.66091L8.37158 1.85986C9.8421 0.691541 11.9032 0.645225 13.4188 1.72091L13.6053 1.85986L20.6557 7.49996ZM20.3779 19.7725L20.3906 19.5872V10.2083C20.3779 9.71154 20.1706 9.24723 19.8116 8.90102L19.6611 8.77249L12.598 3.12197C11.718 2.41565 10.4674 2.38207 9.54112 2.9946L9.36628 3.12197L2.32628 8.79681C1.92218 9.0967 1.67902 9.54828 1.62112 10.023L1.60839 10.2083V19.5872C1.60839 21.1272 2.8126 22.3893 4.34218 22.482H6.60007C6.85481 22.482 7.07481 22.3094 7.10839 22.0663L7.1327 21.8579L7.14428 21.7988V18.6736C7.14428 17.4347 8.09375 16.4273 9.30954 16.3335H12.5748C13.8126 16.3335 14.82 17.2842 14.9138 18.5V21.9841C14.9138 22.2272 15.0874 22.4368 15.319 22.482H17.4715C19.0231 22.482 20.2852 21.2905 20.3779 19.7725Z" fill="#142546"/>
</svg>
