<svg width="32" height="32" viewBox="0 0 32 32" fill="none" xmlns="http://www.w3.org/2000/svg">
<path d="M31.1406 13.9185C31.1397 13.9177 31.1389 13.9167 31.1382 13.916L18.0834 0.863037C17.527 0.306396 16.7871 0 16.0002 0C15.2132 0 14.4734 0.306396 13.9167 0.863037L0.868773 13.9094C0.864378 13.9138 0.859739 13.9185 0.855588 13.9229C-0.287106 15.072 -0.285152 16.9365 0.861204 18.0828C1.38494 18.6067 2.07641 18.9099 2.81599 18.9419C2.84627 18.9448 2.87654 18.9463 2.90707 18.9463H3.42714V28.5522C3.42714 30.4534 4.97417 32 6.87548 32H11.9829C12.5008 32 12.9205 31.5801 12.9205 31.0625V23.5312C12.9205 22.6638 13.6264 21.9583 14.4939 21.9583H17.5064C18.374 21.9583 19.0796 22.6638 19.0796 23.5312V31.0625C19.0796 31.5801 19.4993 32 20.0172 32H25.1246C27.0262 32 28.573 30.4534 28.573 28.5522V18.9463H29.0555C29.8422 18.9463 30.582 18.6399 31.1389 18.083C32.2865 16.9351 32.287 15.0671 31.1406 13.9185ZM29.8129 16.7573C29.6104 16.9597 29.3414 17.0713 29.0555 17.0713H27.6354C27.1175 17.0713 26.6978 17.491 26.6978 18.0088V28.5522C26.6978 29.4194 25.9922 30.125 25.1246 30.125H20.9548V23.5312C20.9548 21.6301 19.408 20.0833 17.5064 20.0833H14.4939C12.5924 20.0833 11.0453 21.6301 11.0453 23.5312V30.125H6.87548C6.00821 30.125 5.30233 29.4194 5.30233 28.5522V18.0088C5.30233 17.491 4.88261 17.0713 4.36473 17.0713H2.96908C2.95443 17.0703 2.94003 17.0696 2.92513 17.0693C2.64581 17.0645 2.38382 16.9536 2.18751 16.7571C1.76999 16.3396 1.76999 15.6602 2.18751 15.2424C2.18775 15.2424 2.18775 15.2422 2.188 15.2419L2.18873 15.2412L15.243 2.18872C15.4452 1.98633 15.714 1.875 16.0002 1.875C16.2861 1.875 16.5549 1.98633 16.7573 2.18872L29.8087 15.2385C29.8107 15.2405 29.8129 15.2424 29.8148 15.2444C30.2301 15.6626 30.2294 16.3406 29.8129 16.7573Z" fill="black"/>
</svg>
