<svg width="20" height="20" viewBox="0 0 20 20" fill="none" xmlns="http://www.w3.org/2000/svg">
<path fill-rule="evenodd" clip-rule="evenodd" d="M11.3291 3.47353H14.1433C17.5258 3.47353 19.1758 5.27936 19.1666 8.9827V13.4469C19.1666 16.9852 16.9849 19.1669 13.4374 19.1669H6.55325C3.02409 19.1669 0.833252 16.9852 0.833252 13.4377V6.55353C0.833252 2.75853 2.51992 0.83353 5.84742 0.83353H7.29575C8.14917 0.824364 8.94575 1.21853 9.46825 1.8877L10.2749 2.9602C10.5316 3.28103 10.9166 3.47353 11.3291 3.47353ZM5.75575 13.016H14.2441C14.6199 13.016 14.9224 12.7044 14.9224 12.3285C14.9224 11.9435 14.6199 11.641 14.2441 11.641H5.75575C5.37075 11.641 5.06825 11.9435 5.06825 12.3285C5.06825 12.7044 5.37075 13.016 5.75575 13.016Z" fill="#51BFBD"/>
</svg>
