<svg width="15" height="17" viewBox="0 0 15 17" fill="none" xmlns="http://www.w3.org/2000/svg">
<path fill-rule="evenodd" clip-rule="evenodd" d="M4.18292 0.583336H10.8179C13.2633 0.583336 14.625 1.9925 14.625 4.40709V12.585C14.625 15.0392 13.2633 16.4167 10.8179 16.4167H4.18292C1.77625 16.4167 0.375 15.0392 0.375 12.585V4.40709C0.375 1.9925 1.77625 0.583336 4.18292 0.583336ZM4.39667 4.2725V4.26458H6.76296C7.10417 4.26458 7.38125 4.54166 7.38125 4.88129C7.38125 5.23041 7.10417 5.5075 6.76296 5.5075H4.39667C4.05546 5.5075 3.77917 5.23041 3.77917 4.89C3.77917 4.54958 4.05546 4.2725 4.39667 4.2725ZM4.39667 9.08582H10.6033C10.9437 9.08582 11.2208 8.80874 11.2208 8.46832C11.2208 8.1279 10.9437 7.85003 10.6033 7.85003H4.39667C4.05546 7.85003 3.77917 8.1279 3.77917 8.46832C3.77917 8.80874 4.05546 9.08582 4.39667 9.08582ZM4.39667 12.7038H10.6033C10.9192 12.6721 11.1575 12.4021 11.1575 12.0863C11.1575 11.7617 10.9192 11.4925 10.6033 11.4608H4.39667C4.15917 11.4371 3.92958 11.5479 3.80292 11.7538C3.67625 11.9517 3.67625 12.2129 3.80292 12.4188C3.92958 12.6167 4.15917 12.7354 4.39667 12.7038Z" fill="#006B69"/>
</svg>
