<svg width="17" height="19" viewBox="0 0 17 19" fill="none" xmlns="http://www.w3.org/2000/svg">
<path fill-rule="evenodd" clip-rule="evenodd" d="M12.3595 1.42254L12.3604 2.07846C14.7707 2.26737 16.3629 3.9098 16.3655 6.42853L16.375 13.8011C16.3784 16.5472 14.6532 18.2369 11.8878 18.2412L5.1329 18.25C2.3848 18.2535 0.637971 16.5236 0.634515 13.7696L0.625012 6.48363C0.621557 3.94828 2.15759 2.31022 4.56791 2.08896L4.56704 1.43304C4.56618 1.04823 4.85127 0.75875 5.23139 0.75875C5.61151 0.757875 5.8966 1.04648 5.89747 1.43129L5.89833 2.04348L11.03 2.03648L11.0291 1.42429C11.0282 1.03948 11.3133 0.750879 11.6935 0.750004C12.0649 0.74913 12.3587 1.03774 12.3595 1.42254ZM1.9563 6.75387L15.0359 6.73638V6.43028C14.9988 4.54997 14.0554 3.56347 12.3621 3.41654L12.363 4.08995C12.363 4.46601 12.0701 4.76424 11.6986 4.76424C11.3185 4.76512 11.0326 4.46776 11.0326 4.0917L11.0317 3.38331L5.90006 3.3903L5.90092 4.09782C5.90092 4.47476 5.61669 4.77211 5.23657 4.77211C4.85645 4.77299 4.57049 4.47651 4.57049 4.09957L4.56963 3.42616C2.885 3.59495 1.95284 4.58496 1.95543 6.48188L1.9563 6.75387ZM11.3349 10.7288V10.7384C11.3436 11.1407 11.6719 11.4459 12.0701 11.4372C12.4589 11.4275 12.769 11.0943 12.7604 10.692C12.7422 10.3072 12.4304 9.99325 12.0425 9.99413C11.6451 10.0029 11.3341 10.3265 11.3349 10.7288ZM12.0485 14.6555C11.6511 14.6468 11.3306 14.3153 11.3297 13.913C11.3211 13.5107 11.6399 13.1775 12.0373 13.1679H12.0459C12.452 13.1679 12.7811 13.4994 12.7811 13.9104C12.782 14.3215 12.4537 14.6547 12.0485 14.6555ZM7.77561 10.7427C7.79289 11.145 8.12204 11.459 8.51944 11.4415C8.9082 11.4231 9.21834 11.0908 9.20107 10.6885C9.19156 10.295 8.87191 9.98886 8.48315 9.98974C8.08576 10.0072 7.77475 10.3404 7.77561 10.7427ZM8.52289 14.6162C8.12549 14.6337 7.79721 14.3197 7.77907 13.9174C7.77907 13.5151 8.08921 13.1828 8.48661 13.1644C8.87537 13.1635 9.19588 13.4696 9.20452 13.8623C9.22266 14.2655 8.91165 14.5978 8.52289 14.6162ZM4.21629 10.7734C4.23357 11.1757 4.56272 11.4905 4.96012 11.4721C5.34888 11.4546 5.65902 11.1214 5.64088 10.7191C5.63224 10.3256 5.31259 10.0195 4.92297 10.0204C4.52557 10.0378 4.21543 10.3711 4.21629 10.7734ZM4.96358 14.6206C4.56618 14.6389 4.23789 14.3241 4.21975 13.9218C4.21889 13.5195 4.52989 13.1863 4.92729 13.1688C5.31605 13.1679 5.63656 13.474 5.6452 13.8676C5.66335 14.2699 5.3532 14.6031 4.96358 14.6206Z" fill="#006B69"/>
</svg>
