<svg width="20" height="14" viewBox="0 0 20 14" fill="none" xmlns="http://www.w3.org/2000/svg">
<path fill-rule="evenodd" clip-rule="evenodd" d="M4.11304 0.75H9.9051C12.3271 0.75 14.0181 2.14086 14.0181 4.13409V9.8659C14.0181 11.8591 12.3271 13.25 9.9051 13.25H4.11304C1.69102 13.25 0 11.8591 0 9.8659V4.13409C0 2.14086 1.69102 0.75 4.11304 0.75ZM17.958 2.73248C18.397 2.54635 18.912 2.56581 19.331 2.78578C19.75 3.0049 20 3.38561 20 3.80185V10.1986C20 10.6157 19.75 10.9956 19.331 11.2147C19.102 11.334 18.846 11.3949 18.588 11.3949C18.373 11.3949 18.158 11.3526 17.957 11.2672L16.476 10.6445C15.928 10.4127 15.588 9.94737 15.588 9.43045V4.5692C15.588 4.05143 15.928 3.58612 16.476 3.356L17.958 2.73248Z" fill="#51BFBD"/>
</svg>
