<svg width="19" height="21" viewBox="0 0 19 21" fill="none" xmlns="http://www.w3.org/2000/svg">
<path fill-rule="evenodd" clip-rule="evenodd" d="M6.29757 15.0729H11.9081C12.331 15.0729 12.6816 14.7188 12.6816 14.2917C12.6816 13.8646 12.331 13.5208 11.9081 13.5208H6.29757C5.87471 13.5208 5.52405 13.8646 5.52405 14.2917C5.52405 14.7188 5.87471 15.0729 6.29757 15.0729ZM9.78354 8.31251H6.29757C5.87471 8.31251 5.52405 8.66668 5.52405 9.09376C5.52405 9.52084 5.87471 9.86459 6.29757 9.86459H9.78354C10.2064 9.86459 10.5571 9.52084 10.5571 9.09376C10.5571 8.66668 10.2064 8.31251 9.78354 8.31251ZM17.1437 7.40169C17.3862 7.39889 17.6501 7.39584 17.89 7.39584C18.1478 7.39584 18.3541 7.60418 18.3541 7.86459V16.2396C18.3541 18.8229 16.2811 20.9167 13.7233 20.9167H5.51374C2.83222 20.9167 0.645752 18.7188 0.645752 16.0104V4.78126C0.645752 2.19793 2.72909 0.0833435 5.29715 0.0833435H10.8046C11.0727 0.0833435 11.279 0.302094 11.279 0.56251V3.91668C11.279 5.82293 12.8363 7.38543 14.7237 7.39584C15.1646 7.39584 15.5532 7.39914 15.8933 7.40202C16.158 7.40427 16.3932 7.40626 16.6008 7.40626C16.7476 7.40626 16.9379 7.40406 17.1437 7.40169ZM17.4281 5.88126C16.5804 5.88439 15.581 5.88126 14.8621 5.87397C13.7215 5.87397 12.7819 4.92501 12.7819 3.77293V1.02709C12.7819 0.578135 13.3213 0.355219 13.6297 0.679177C14.1873 1.26482 14.9535 2.06965 15.7163 2.87101C16.4786 3.67173 17.2376 4.46899 17.7819 5.04064C18.083 5.35626 17.8623 5.88022 17.4281 5.88126Z" fill="#51BFBD"/>
</svg>
