<svg width="17" height="17" viewBox="0 0 17 17" fill="none" xmlns="http://www.w3.org/2000/svg">
<path fill-rule="evenodd" clip-rule="evenodd" d="M12.1934 0.59151C13.3322 0.520334 14.4552 0.915758 15.3015 1.69079C16.0765 2.537 16.4719 3.66 16.4087 4.80673V12.1933C16.4798 13.34 16.0765 14.463 15.3094 15.3092C14.4632 16.0842 13.3322 16.4797 12.1934 16.4085H4.80681C3.66007 16.4797 2.53706 16.0842 1.69084 15.3092C0.915807 14.463 0.520379 13.34 0.591556 12.1933V4.80673C0.520379 3.66 0.915807 2.537 1.69084 1.69079C2.53706 0.915758 3.66007 0.520334 4.80681 0.59151H12.1934ZM7.69343 12.3356L13.0159 6.99739C13.4983 6.50706 13.4983 5.71621 13.0159 5.23379L11.9878 4.20569C11.4974 3.71536 10.7066 3.71536 10.2163 4.20569L9.68639 4.74347C9.6073 4.82255 9.6073 4.957 9.68639 5.03608C9.68639 5.03608 10.9438 6.28562 10.9676 6.31726C11.0546 6.41216 11.1099 6.53869 11.1099 6.68105C11.1099 6.96575 10.8806 7.20301 10.588 7.20301C10.4535 7.20301 10.327 7.14765 10.24 7.06065L8.91926 5.74784C8.85599 5.68458 8.74527 5.68458 8.682 5.74784L4.90962 9.52019C4.64864 9.78117 4.49838 10.1291 4.49047 10.5008L4.44302 12.3752C4.44302 12.478 4.47465 12.5729 4.54583 12.644C4.61701 12.7152 4.71191 12.7548 4.81472 12.7548H6.67323C7.05284 12.7548 7.41663 12.6045 7.69343 12.3356Z" fill="#006B69"/>
</svg>
