<svg width="15" height="16" viewBox="0 0 15 16" fill="none" xmlns="http://www.w3.org/2000/svg">
<path fill-rule="evenodd" clip-rule="evenodd" d="M4.99646 2.709C4.83846 2.92241 4.85661 3.22682 5.05623 3.42C5.26873 3.6325 5.61581 3.6325 5.82831 3.42L6.95456 2.28667V5.21917H8.04539V2.28667L9.17165 3.42L9.23273 3.47268C9.44614 3.63074 9.75055 3.61318 9.94373 3.42C10.05 3.31375 10.1066 3.17208 10.1066 3.03042C10.1066 2.89583 10.05 2.75417 9.94373 2.64792L7.88248 0.579583L7.81822 0.521839C7.72664 0.452933 7.61331 0.416666 7.49998 0.416666C7.35123 0.416666 7.21664 0.473333 7.11039 0.579583L5.04914 2.64792L4.99646 2.709ZM3.41358 5.22277C1.74669 5.3015 0.416504 6.7037 0.416504 8.41193V11.9289L0.419931 12.0794C0.497323 13.7758 1.87587 15.136 3.56859 15.136H11.4382L11.5861 15.1325C13.253 15.0537 14.5832 13.6513 14.5832 11.9361V8.42635L14.5797 8.27524C14.502 6.57267 13.1169 5.21929 11.4311 5.21929H8.04525V9.54341L8.0402 9.61943C8.00359 9.89245 7.77255 10.0983 7.49984 10.0983C7.19525 10.0983 6.95442 9.85331 6.95442 9.54341V5.21929H3.5615L3.41358 5.22277Z" fill="#F894BA"/>
</svg>
