<svg width="41" height="16" viewBox="0 0 41 16" fill="none" xmlns="http://www.w3.org/2000/svg">
<path d="M0 16L5.07111 2.43179C5.61794 0.968682 7.00744 0 8.55931 0H9.3181C10.87 0 12.2595 0.968682 12.8063 2.43179L17.8774 16H13.8741L12.3478 11.7297H5.47957L3.9533 16H0ZM6.4804 8.92973H11.347L9.6103 4.08893C9.37297 3.42739 8.444 3.42816 8.20775 4.09009L6.4804 8.92973Z" fill="url(#paint0_linear)"/>
<path d="M22.5537 16C20.999 16 19.6076 15.0278 19.0628 13.5609L14.0263 0H18.2798L22.4309 11.5576C22.6607 12.1974 23.5491 12.2243 23.8165 11.5995L24.9591 8.92973H28.6022L26.8801 13.562C26.3349 15.0284 24.9438 16 23.3895 16H22.5537Z" fill="url(#paint1_linear)"/>
<path d="M27.3608 2.44272L24.9591 8.92973H28.6021L30.7882 3.2H31.6767C31.9809 3.2 32.2546 3.38625 32.3682 3.67056L33.9201 7.55452C34.183 8.21254 33.7021 8.92973 32.998 8.92973H29.5555L28.5045 11.7297H33.3748C34.6321 11.7297 35.7544 12.5243 36.1803 13.716L36.9967 16H41L35.9289 2.43179C35.382 0.968682 33.9925 0 32.4407 0H30.853C29.2969 0 27.9046 0.973903 27.3608 2.44272Z" fill="#51BFBD"/>
<path d="M27.3608 2.44272L24.9591 8.92973H28.6021L30.7882 3.2H31.6767C31.9809 3.2 32.2546 3.38625 32.3682 3.67056L33.9201 7.55452C34.183 8.21254 33.7021 8.92973 32.998 8.92973H29.5555L28.5045 11.7297H33.3748C34.6321 11.7297 35.7544 12.5243 36.1803 13.716L36.9967 16H41L35.9289 2.43179C35.382 0.968682 33.9925 0 32.4407 0H30.853C29.2969 0 27.9046 0.973903 27.3608 2.44272Z" fill="url(#paint2_linear)"/>
<path d="M27.3608 2.44272L24.9591 8.92973H28.6021L30.7882 3.2H31.6767C31.9809 3.2 32.2546 3.38625 32.3682 3.67056L33.9201 7.55452C34.183 8.21254 33.7021 8.92973 32.998 8.92973H29.5555L28.5045 11.7297H33.3748C34.6321 11.7297 35.7544 12.5243 36.1803 13.716L36.9967 16H41L35.9289 2.43179C35.382 0.968682 33.9925 0 32.4407 0H30.853C29.2969 0 27.9046 0.973903 27.3608 2.44272Z" fill="url(#paint3_linear)"/>
<defs>
<linearGradient id="paint0_linear" x1="19.6188" y1="16" x2="19.6188" y2="-35.0099" gradientUnits="userSpaceOnUse">
<stop stop-color="#51BFBD"/>
<stop offset="1" stop-color="#016BA7"/>
</linearGradient>
<linearGradient id="paint1_linear" x1="19.6188" y1="16" x2="19.6188" y2="-35.0099" gradientUnits="userSpaceOnUse">
<stop stop-color="#51BFBD"/>
<stop offset="1" stop-color="#016BA7"/>
</linearGradient>
<linearGradient id="paint2_linear" x1="28.738" y1="9.41177" x2="41.7679" y2="-3.56785" gradientUnits="userSpaceOnUse">
<stop stop-color="#46B4BA"/>
<stop offset="0.161458" stop-color="#46B4BA" stop-opacity="0.844167"/>
<stop offset="0.625" stop-color="#46B4BA" stop-opacity="0.45"/>
<stop offset="0.994792" stop-color="#46B4BA" stop-opacity="0"/>
</linearGradient>
<linearGradient id="paint3_linear" x1="45.3209" y1="20.7059" x2="28.6559" y2="8.93989" gradientUnits="userSpaceOnUse">
<stop stop-color="#F894BA"/>
<stop offset="1" stop-color="white" stop-opacity="0"/>
</linearGradient>
</defs>
</svg>
