<svg width="63" height="32" viewBox="0 0 63 32" fill="none" xmlns="http://www.w3.org/2000/svg">
<path fill-rule="evenodd" clip-rule="evenodd" d="M54.665 13.0068C50.3161 11.2151 45.3381 13.2881 43.5463 17.6371C41.7546 21.986 43.8276 26.964 48.1766 28.7558C52.5255 30.5475 57.5035 28.4745 59.2953 24.1255C61.087 19.7766 59.014 14.7986 54.665 13.0068ZM53.5199 15.8584C50.7352 14.7111 47.5476 16.0385 46.4003 18.8233C45.253 21.608 46.5804 24.7956 49.3652 25.9429C52.1499 27.0902 55.3375 25.7628 56.4848 22.978C57.6321 20.1933 56.3047 17.0057 53.5199 15.8584Z" fill="url(#paint0_linear)"/>
<path d="M0 28.7662L5.10863 15.1982C5.65951 13.7351 7.05928 12.7665 8.62264 12.7665H9.38704C10.9504 12.7665 12.3502 13.7351 12.9011 15.1982L18.0097 28.7662H13.9767L12.4392 24.496H5.52011L3.98255 28.7662H0ZM6.52835 21.696H11.4309L9.68141 16.8553C9.44232 16.1938 8.50647 16.1946 8.26847 16.8565L6.52835 21.696Z" fill="#51BFBD"/>
<path d="M0 28.7662L5.10863 15.1982C5.65951 13.7351 7.05928 12.7665 8.62264 12.7665H9.38704C10.9504 12.7665 12.3502 13.7351 12.9011 15.1982L18.0097 28.7662H13.9767L12.4392 24.496H5.52011L3.98255 28.7662H0ZM6.52835 21.696H11.4309L9.68141 16.8553C9.44232 16.1938 8.50647 16.1946 8.26847 16.8565L6.52835 21.696Z" fill="url(#paint1_linear)"/>
<path d="M0 28.7662L5.10863 15.1982C5.65951 13.7351 7.05928 12.7665 8.62264 12.7665H9.38704C10.9504 12.7665 12.3502 13.7351 12.9011 15.1982L18.0097 28.7662H13.9767L12.4392 24.496H5.52011L3.98255 28.7662H0ZM6.52835 21.696H11.4309L9.68141 16.8553C9.44232 16.1938 8.50647 16.1946 8.26847 16.8565L6.52835 21.696Z" fill="url(#paint2_linear)"/>
<path d="M22.7206 28.7662C21.1544 28.7662 19.7527 27.794 19.2039 26.3271L14.13 12.7665H18.415L22.5969 24.3239C22.8284 24.9637 23.7233 24.9905 23.9927 24.3657L25.1437 21.696H28.8138L27.0789 26.3282C26.5298 27.7945 25.1284 28.7662 23.5626 28.7662H22.7206Z" fill="#51BFBD"/>
<path d="M22.7206 28.7662C21.1544 28.7662 19.7527 27.794 19.2039 26.3271L14.13 12.7665H18.415L22.5969 24.3239C22.8284 24.9637 23.7233 24.9905 23.9927 24.3657L25.1437 21.696H28.8138L27.0789 26.3282C26.5298 27.7945 25.1284 28.7662 23.5626 28.7662H22.7206Z" fill="url(#paint3_linear)"/>
<path d="M22.7206 28.7662C21.1544 28.7662 19.7527 27.794 19.2039 26.3271L14.13 12.7665H18.415L22.5969 24.3239C22.8284 24.9637 23.7233 24.9905 23.9927 24.3657L25.1437 21.696H28.8138L27.0789 26.3282C26.5298 27.7945 25.1284 28.7662 23.5626 28.7662H22.7206Z" fill="url(#paint4_linear)"/>
<path d="M27.5632 15.2092L25.1437 21.696H28.8138L31.016 15.9664H31.9111C32.2175 15.9664 32.4933 16.1527 32.6077 16.437L34.171 20.3209C34.4359 20.9789 33.9515 21.696 33.2422 21.696H29.7742L28.7154 24.496H33.6217C34.8884 24.496 36.0189 25.2905 36.448 26.4822L37.2704 28.7662H41.3033L36.1947 15.1982C35.6438 13.7351 34.2441 12.7665 32.6807 12.7665H31.0813C29.5137 12.7665 28.111 13.7404 27.5632 15.2092Z" fill="#51BFBD"/>
<path d="M27.5632 15.2092L25.1437 21.696H28.8138L31.016 15.9664H31.9111C32.2175 15.9664 32.4933 16.1527 32.6077 16.437L34.171 20.3209C34.4359 20.9789 33.9515 21.696 33.2422 21.696H29.7742L28.7154 24.496H33.6217C34.8884 24.496 36.0189 25.2905 36.448 26.4822L37.2704 28.7662H41.3033L36.1947 15.1982C35.6438 13.7351 34.2441 12.7665 32.6807 12.7665H31.0813C29.5137 12.7665 28.111 13.7404 27.5632 15.2092Z" fill="url(#paint5_linear)"/>
<path d="M27.5632 15.2092L25.1437 21.696H28.8138L31.016 15.9664H31.9111C32.2175 15.9664 32.4933 16.1527 32.6077 16.437L34.171 20.3209C34.4359 20.9789 33.9515 21.696 33.2422 21.696H29.7742L28.7154 24.496H33.6217C34.8884 24.496 36.0189 25.2905 36.448 26.4822L37.2704 28.7662H41.3033L36.1947 15.1982C35.6438 13.7351 34.2441 12.7665 32.6807 12.7665H31.0813C29.5137 12.7665 28.111 13.7404 27.5632 15.2092Z" fill="url(#paint6_linear)"/>
<path fill-rule="evenodd" clip-rule="evenodd" d="M41.2118 2.72201C35.3175 4.22532 31.7579 10.2223 33.2612 16.1166C34.7645 22.0109 40.7615 25.5705 46.6558 24.0672C52.5501 22.5639 56.1097 16.5669 54.6064 10.6726C53.1031 4.7783 47.1061 1.2187 41.2118 2.72201ZM42.2806 6.49364C38.4982 7.45833 36.2139 11.3066 37.1786 15.089C38.1433 18.8714 41.9916 21.1557 45.774 20.191C49.5564 19.2263 51.8407 15.378 50.876 11.5956C49.9113 7.81318 46.063 5.52896 42.2806 6.49364Z" fill="url(#paint7_linear)" fill-opacity="0.84"/>
<defs>
<linearGradient id="paint0_linear" x1="50.6685" y1="25.547" x2="46.9951" y2="12.5258" gradientUnits="userSpaceOnUse">
<stop stop-color="#DDFBFA"/>
<stop offset="1" stop-color="white" stop-opacity="0"/>
</linearGradient>
<linearGradient id="paint1_linear" x1="28.9507" y1="22.1781" x2="41.9804" y2="9.10239" gradientUnits="userSpaceOnUse">
<stop stop-color="#F4FBFB"/>
<stop offset="0.161458" stop-color="#F6FCFC" stop-opacity="0.844167"/>
<stop offset="0.625" stop-color="#FAFDFD" stop-opacity="0.45"/>
<stop offset="0.994792" stop-color="white" stop-opacity="0"/>
</linearGradient>
<linearGradient id="paint2_linear" x1="45.6562" y1="33.4719" x2="28.9507" y2="21.5898" gradientUnits="userSpaceOnUse">
<stop stop-color="#F894BA"/>
<stop offset="1" stop-color="white" stop-opacity="0"/>
</linearGradient>
<linearGradient id="paint3_linear" x1="28.9507" y1="22.1781" x2="41.9804" y2="9.10239" gradientUnits="userSpaceOnUse">
<stop stop-color="#F4FBFB"/>
<stop offset="0.161458" stop-color="#F6FCFC" stop-opacity="0.844167"/>
<stop offset="0.625" stop-color="#FAFDFD" stop-opacity="0.45"/>
<stop offset="0.994792" stop-color="white" stop-opacity="0"/>
</linearGradient>
<linearGradient id="paint4_linear" x1="45.6562" y1="33.4719" x2="28.9507" y2="21.5898" gradientUnits="userSpaceOnUse">
<stop stop-color="#F894BA"/>
<stop offset="1" stop-color="white" stop-opacity="0"/>
</linearGradient>
<linearGradient id="paint5_linear" x1="28.9507" y1="22.1781" x2="41.9804" y2="9.10239" gradientUnits="userSpaceOnUse">
<stop stop-color="#F4FBFB"/>
<stop offset="0.161458" stop-color="#F6FCFC" stop-opacity="0.844167"/>
<stop offset="0.625" stop-color="#FAFDFD" stop-opacity="0.45"/>
<stop offset="0.994792" stop-color="white" stop-opacity="0"/>
</linearGradient>
<linearGradient id="paint6_linear" x1="45.6562" y1="33.4719" x2="28.9507" y2="21.5898" gradientUnits="userSpaceOnUse">
<stop stop-color="#F894BA"/>
<stop offset="1" stop-color="white" stop-opacity="0"/>
</linearGradient>
<linearGradient id="paint7_linear" x1="57.1212" y1="5.7888" x2="36.0464" y2="18.6491" gradientUnits="userSpaceOnUse">
<stop stop-color="#F894BA"/>
<stop offset="0.585827" stop-color="#DDFBFA" stop-opacity="0.54"/>
<stop offset="1" stop-color="#DDFBFA" stop-opacity="0"/>
</linearGradient>
</defs>
</svg>
