<svg width="20" height="24" viewBox="0 0 20 24" fill="none" xmlns="http://www.w3.org/2000/svg">
<path fill-rule="evenodd" clip-rule="evenodd" d="M10.0423 0.333344H9.95908C6.02842 0.333344 2.42446 3.18533 2.07482 6.96113C2.0515 7.23124 2.03561 7.50724 2.02534 7.80457L2.01098 8.49971L2.00813 9.12295L2.02568 9.05191C1.86347 9.8429 1.48962 10.5766 0.942786 11.1761L0.86442 11.2769C0.396205 11.9882 0.127179 12.8115 0.0855374 13.6615L0.0845507 13.9395C0.0606468 15.0576 0.443785 16.164 1.16456 17.0427C2.14201 18.0748 3.40729 18.6904 4.76529 18.821C8.23849 19.1982 11.7525 19.1982 15.2354 18.82C16.5841 18.6959 17.8531 18.0784 18.7896 17.0846C19.4967 16.2386 19.8826 15.2235 19.9157 14.1724L19.9168 13.7019C19.8781 12.8144 19.6074 11.9903 19.1336 11.2821L19.0616 11.1897L18.8858 10.9829C18.4907 10.4895 18.2022 9.92104 18.038 9.31304L17.986 9.09474L17.9753 8.86579C17.972 8.76282 17.9704 8.64864 17.9699 8.50603L17.9698 7.72075C17.9671 7.42035 17.9582 7.20674 17.9374 6.96627C17.5759 3.18334 13.9708 0.333344 10.0423 0.333344ZM9.95908 1.96124H10.0423C13.1894 1.96124 16.0603 4.23087 16.336 7.11547C16.3523 7.30484 16.3596 7.48551 16.3618 7.75391L16.3649 8.80932C16.3685 8.97812 16.3751 9.11848 16.3864 9.27642L16.4014 9.38454L16.4771 9.70629C16.7015 10.5574 17.1044 11.3514 17.659 12.036L17.8199 12.2246L17.8021 12.195C18.1097 12.6548 18.285 13.1883 18.3095 13.7385L18.3086 13.9292C18.3272 14.6946 18.0734 15.4219 17.5933 15.9978C16.9588 16.669 16.0518 17.1103 15.0767 17.2001C11.695 17.5672 8.29599 17.5672 4.92712 17.2014C3.94146 17.1065 3.03378 16.6649 2.3628 15.9586C1.92784 15.4249 1.6768 14.7 1.69256 13.957L1.69274 13.7018L1.71312 13.4796C1.76221 13.1077 1.88645 12.7309 2.07902 12.3839L2.17668 12.2223C2.89259 11.4171 3.38391 10.438 3.6003 9.38278L3.61709 9.21734L3.6247 8.14485L3.64343 7.60073C3.65193 7.42908 3.66281 7.26599 3.67645 7.1079C3.94287 4.23101 6.8111 1.96124 9.95908 1.96124ZM2.17668 12.2223C2.15936 12.2418 2.14192 12.2611 2.12434 12.2804L2.18182 12.2138L2.17668 12.2223ZM13.0428 20.9724C12.6968 20.6906 12.1906 20.7461 11.9122 21.0964C11.7916 21.2482 11.6519 21.3844 11.4965 21.5017C10.9694 21.9151 10.3116 22.0992 9.65762 22.0213C9.00464 21.9435 8.41107 21.6111 8.00832 21.0994C7.7316 20.7478 7.2257 20.6899 6.87837 20.97C6.53103 21.2501 6.47379 21.7622 6.75052 22.1138C7.41833 22.9623 8.3969 23.5102 9.46968 23.638C10.5415 23.7657 11.6208 23.4637 12.4697 22.7976C12.7217 22.6076 12.9595 22.3757 13.1653 22.1168C13.4436 21.7666 13.3888 21.2542 13.0428 20.9724Z" fill="#142546"/>
</svg>
