<svg width="33" height="27" viewBox="0 0 33 27" fill="none" xmlns="http://www.w3.org/2000/svg">
<path d="M21.4428 11.221L13.6931 7.34591C13.2341 7.11639 12.7755 7 12.33 7C10.9581 7 10 8.08078 10 9.62837V16.8347C10 18.3823 10.9581 19.463 12.33 19.463C12.7755 19.463 13.2341 19.3467 13.6931 19.1171L21.4428 15.2423C22.384 14.7717 22.9236 14.0389 22.9236 13.2314C22.9236 12.4242 22.384 11.6916 21.4428 11.221ZM20.5831 13.523L12.8334 17.3978C12.5973 17.516 12.4294 17.5408 12.33 17.5408C11.9931 17.5408 11.9223 17.1568 11.9223 16.8347V9.62837C11.9223 9.30624 11.9931 8.92253 12.33 8.92253C12.4294 8.92253 12.5973 8.94731 12.8334 9.0652L20.5833 12.9406C20.8223 13.0599 20.94 13.1723 20.985 13.2316C20.94 13.291 20.8223 13.4034 20.5831 13.523Z" fill="black"/>
<path d="M29.2722 0H3.5347C1.58563 0 0 1.58563 0 3.5347V23.0952C0 25.0442 1.58563 26.6301 3.5347 26.6301H29.2722C31.2213 26.6301 32.8069 25.0442 32.8069 23.0952V3.5347C32.8069 1.58563 31.2213 0 29.2722 0V0ZM30.8847 23.0952C30.8847 23.9842 30.1613 24.7078 29.2722 24.7078H3.5347C2.64564 24.7078 1.92228 23.9842 1.92228 23.0952V3.5347C1.92228 2.64564 2.64564 1.92228 3.5347 1.92228H29.2722C30.1613 1.92228 30.8847 2.64564 30.8847 3.5347V23.0952Z" fill="black"/>
</svg>
